<?xml version="1.0" encoding="UTF-8" standalone="no"?>
<!-- Created with Inkscape (http://www.inkscape.org/) -->

<svg
   width="192"
   height="192"
   viewBox="0 0 50.799999 50.8"
   version="1.1"
   id="svg1"
   inkscape:version="1.4 (86a8ad7, 2024-10-11)"
   sodipodi:docname="yok.svg"
   xmlns:inkscape="http://www.inkscape.org/namespaces/inkscape"
   xmlns:sodipodi="http://sodipodi.sourceforge.net/DTD/sodipodi-0.dtd"
   xmlns="http://www.w3.org/2000/svg"
   xmlns:svg="http://www.w3.org/2000/svg"
   xmlns:serif="http://www.serif.com/">
  <sodipodi:namedview
     id="namedview1"
     pagecolor="#ffffff"
     bordercolor="#000000"
     borderopacity="0.25"
     inkscape:showpageshadow="2"
     inkscape:pageopacity="0.0"
     inkscape:pagecheckerboard="0"
     inkscape:deskcolor="#d1d1d1"
     inkscape:document-units="mm"
     inkscape:zoom="3.2705871"
     inkscape:cx="120.16191"
     inkscape:cy="64.514411"
     inkscape:window-width="2496"
     inkscape:window-height="1558"
     inkscape:window-x="-11"
     inkscape:window-y="-11"
     inkscape:window-maximized="1"
     inkscape:current-layer="layer1" />
  <defs
     id="defs1" />
  <g
     inkscape:label="Layer 1"
     inkscape:groupmode="layer"
     id="layer1">
    <g
       id="Layer-1"
       serif:id="Layer 1"
       transform="matrix(0.07256622,0,0,0.11079489,-4.7761909,-3.3459004)"
       style="clip-rule:evenodd;fill-rule:evenodd;stroke-linejoin:round;stroke-miterlimit:2">
      <g
         transform="translate(177.907,384.395)"
         id="g2">
        <path
           d="m 0,-249.886 h 34.71 l 91.274,91.277 93.205,-90.621 h 34.724 L -2.568,0 H -37.926 L 63,-97.541 -91.927,-248.605 l 34.07,-0.625 136.274,133.035 29.581,-26.344 z"
           style="fill:currentColor"
           id="path1" />
      </g>
      <g
         transform="translate(646.522,134.508)"
         id="g3">
        <path
           d="m 0,249.886 h -31.501 l -85.281,-83.187 -85.701,83.187 h -34.722 L 19.276,0 H 54.618 L -50.954,103.648 99.185,249.886 H 66.302 L -68.141,120.205 -97.705,148.169 Z"
           style="fill:currentColor"
           id="path2" />
      </g>
      <g
         transform="translate(230.79,135.623)"
         id="g4">
        <path
           d="M 0,248.771 H 32.793 L 288.619,0 h -35.996 z"
           style="fill:currentColor"
           id="path3" />
      </g>
      <g
         transform="translate(323.998,135.623)"
         id="g5">
        <path
           d="M 0,248.771 H 32.776 L 288.615,0 h -35.998 z"
           style="fill:currentColor"
           id="path4" />
      </g>
    </g>
  </g>
</svg>
